<svg version="1.1" id="Layer_1" xmlns="http://www.w3.org/2000/svg" xmlns:xlink="http://www.w3.org/1999/xlink" x="0px" y="0px"
	 width="100%" viewBox="0 0 512 384" enable-background="new 0 0 512 384" xml:space="preserve">
<path fill="#FFFFFF" opacity="1.000000" stroke="none" 
	d="
M277.000000,385.000000 
	C184.692276,385.000000 92.884544,385.000000 1.038409,385.000000 
	C1.038409,257.061310 1.038409,129.122604 1.038409,1.091944 
	C171.557739,1.091944 342.115540,1.091944 512.836670,1.091944 
	C512.836670,128.999832 512.836670,256.999908 512.836670,385.000000 
	C434.455902,385.000000 355.977936,385.000000 277.000000,385.000000 
M295.680725,119.995277 
	C294.465088,119.693787 293.249420,119.392303 291.904785,118.388268 
	C290.157532,116.429016 288.923340,115.850105 288.560150,119.323059 
	C288.258331,122.209419 287.617645,125.060349 287.127075,127.926971 
	C286.627014,127.918297 286.126923,127.909622 285.626831,127.900948 
	C285.276459,125.800980 284.926086,123.701019 284.559509,121.503922 
	C283.178955,121.592316 281.939362,121.671692 280.482788,121.764954 
	C280.482788,120.107140 280.482788,118.753960 280.482788,116.252541 
	C276.565643,117.329720 273.223450,118.248810 269.072571,119.275497 
	C267.712341,119.215706 266.352142,119.155922 264.692139,118.439491 
	C262.857117,116.656609 261.152039,115.821671 259.186523,119.353653 
	C258.914032,119.448563 258.641510,119.543472 258.225311,119.325981 
	C258.225311,119.325981 257.966187,119.091469 257.872253,118.350449 
	C255.694992,117.688080 253.557007,116.767685 251.330505,116.428780 
	C248.558533,116.006859 245.707077,115.898788 242.903595,116.007378 
	C241.945740,116.044487 241.029099,117.145615 240.235138,117.667580 
	C243.031082,119.099411 245.062347,120.139648 246.876846,121.631203 
	C246.538696,121.972549 246.200546,122.313904 245.255569,122.987625 
	C242.591370,125.637833 239.927170,128.288040 236.698029,130.625198 
	C232.629501,127.292580 228.560959,123.959961 223.791809,120.253899 
	C208.753128,115.730705 197.664124,119.122604 188.378494,130.965271 
	C187.980179,130.936798 187.581879,130.908310 186.885315,130.279022 
	C180.657120,123.886246 174.518997,117.388855 167.019165,112.326637 
	C165.724136,123.787857 163.765991,134.987457 175.141632,143.028458 
	C175.029083,143.639114 174.916519,144.249771 174.892578,144.904556 
	C174.892578,144.904556 174.894867,144.805603 174.317856,144.969543 
	C173.921310,145.401138 173.524765,145.832733 172.577393,146.615234 
	C165.932129,152.824524 163.261276,167.383713 167.823013,174.741486 
	C169.231827,173.571732 170.634216,172.509216 171.920853,171.321335 
	C177.515656,166.155914 183.076767,160.953995 189.110275,156.341019 
	C192.328201,159.352325 195.546143,162.363647 199.246964,165.924347 
	C209.405579,170.881546 223.404480,168.717926 231.375961,160.937805 
	C233.160477,159.196121 234.889099,157.397156 237.112198,156.161652 
	C240.552475,159.212463 243.992767,162.263290 247.995667,165.840942 
	C250.157257,166.577744 252.271423,167.727844 254.488373,167.982117 
	C266.074036,169.310913 276.732483,167.842697 284.025330,157.219254 
	C284.462433,156.582520 285.309875,156.227463 286.510956,156.180222 
	C289.910431,159.388626 293.309937,162.597015 297.276428,166.198318 
	C297.872131,166.544846 298.467865,166.891373 299.358490,167.619492 
	C299.358490,167.619492 299.796112,167.820587 299.796112,167.820587 
	C299.796112,167.820587 300.276642,167.787064 300.729156,167.804596 
	C300.729156,167.804596 301.101868,168.061783 301.610382,168.601746 
	C307.109558,170.359146 312.570618,170.756058 318.661102,167.889496 
	C319.395050,167.707001 320.128967,167.524506 321.163879,168.051971 
	C326.624237,168.962753 327.693329,168.022522 329.028961,160.995468 
	C329.028961,160.995468 329.186829,161.021500 329.909576,161.015854 
	C332.546997,160.743652 335.184448,160.471451 337.930878,160.944077 
	C338.001770,165.344849 344.711273,168.243500 339.999634,173.991913 
	C344.449646,171.316620 347.314240,171.548248 350.223785,175.288956 
	C351.787079,177.298828 354.913300,178.363617 356.827026,173.922241 
	C359.587158,171.000015 362.347290,168.077805 365.107422,165.155579 
	C364.746521,164.798737 364.385620,164.441879 364.024750,164.085037 
	C362.201721,164.609802 360.378693,165.134583 357.446045,165.978775 
	C358.255127,159.043365 358.977570,152.850571 359.700012,146.657791 
	C358.037964,150.776611 355.241058,148.964203 353.256012,147.809570 
	C350.758331,146.356750 349.722107,144.049622 351.712280,141.158722 
	C352.202637,140.446457 351.944214,139.218704 352.272491,137.717804 
	C352.558594,137.477493 352.844666,137.237183 353.870728,136.984039 
	C355.418732,136.526230 356.966766,136.068436 358.041840,135.750504 
	C358.338745,130.089767 358.933411,124.805809 358.739136,119.551018 
	C358.658630,117.372444 356.890686,115.256241 355.998779,113.001221 
	C355.998779,113.001221 355.885223,113.106575 355.901337,112.531113 
	C355.650146,112.168373 355.398987,111.805634 355.147797,111.442894 
	C354.768463,111.843704 354.389160,112.244514 353.412689,112.835938 
	C353.208710,112.881012 353.004700,112.926094 352.023956,112.981628 
	C351.091248,114.095810 350.158569,115.209984 349.038391,116.763016 
	C349.038391,116.763016 348.637878,117.022552 348.081757,117.093208 
	C347.794617,117.519569 347.507477,117.945938 346.930481,118.923302 
	C345.679077,120.001259 344.427673,121.079224 342.617462,121.916031 
	C340.670349,122.853737 338.723206,123.791435 336.776062,124.729141 
	C336.810760,124.251076 336.845459,123.773010 336.880127,123.294945 
	C332.991547,122.777290 329.102936,122.259636 325.082123,121.058548 
	C324.257812,119.497437 323.433533,117.936325 322.967712,117.054100 
	C316.539124,117.054100 310.866058,117.054100 304.668579,117.054100 
	C303.811188,116.076691 302.540344,114.627983 300.222595,111.985786 
	C299.103180,115.416382 298.308502,117.851822 297.286133,120.508171 
	C297.286133,120.508171 296.971954,120.464561 296.657227,120.431122 
	C296.657227,120.431122 296.344482,120.392815 295.680725,119.995277 
M276.983673,252.892838 
	C276.986145,253.566452 276.988617,254.240082 276.393311,255.250671 
	C275.605591,257.501678 274.125397,259.815613 274.321777,261.977234 
	C274.420227,263.060913 277.510315,264.467468 279.358734,264.660126 
	C282.231140,264.959412 285.198517,264.347351 288.812073,264.068634 
	C288.812073,262.020142 288.812775,259.596771 288.811920,257.173401 
	C288.808777,248.270767 283.739624,245.401443 275.408356,249.852509 
	C275.937927,250.650436 276.458588,251.434952 276.983673,252.892838 
M293.191193,244.072296 
	C293.191193,250.846970 293.191193,257.621643 293.191193,264.300140 
	C295.929840,264.300140 298.147247,263.979218 300.234528,264.364044 
	C305.251190,265.288849 308.299683,263.272736 308.930145,258.225800 
	C309.890320,250.538849 306.505798,247.434647 298.166748,248.459167 
	C298.053192,246.329758 297.939972,244.206345 297.761993,240.868042 
	C295.848663,241.853653 294.520721,242.537704 293.191193,244.072296 
M138.870834,250.417114 
	C138.430527,253.136597 137.561722,255.871170 137.656891,258.571808 
	C137.779602,262.055420 139.770676,264.636047 143.568298,264.716980 
	C146.559296,264.780701 149.562012,264.294861 152.894989,264.026093 
	C152.894989,257.013275 152.894989,249.619888 152.894989,242.044083 
	C145.703415,240.177902 149.916931,246.925949 147.414963,247.628510 
	C144.740692,248.364044 142.066422,249.099564 138.870834,250.417114 
M352.561890,247.951736 
	C350.759003,248.406815 348.956116,248.861908 347.153259,249.316986 
	C347.156219,249.835281 347.159180,250.353577 347.162170,250.871887 
	C349.854584,251.408096 352.547028,251.944305 355.239471,252.480515 
	C355.136047,252.984528 355.032623,253.488541 354.929169,253.992554 
	C353.157257,254.310333 351.385437,254.628876 349.613373,254.945740 
	C346.477905,255.506409 344.938965,257.364868 345.396179,260.537811 
	C345.864594,263.788910 348.170410,264.903381 351.147858,264.770569 
	C354.072998,264.640045 356.988739,264.299255 360.378448,264.010742 
	C360.378448,261.395569 360.301331,258.430420 360.395874,255.470764 
	C360.551392,250.601974 358.501526,247.887848 352.561890,247.951736 
M165.845413,257.788239 
	C168.082932,257.788239 170.320435,257.788239 172.515533,257.788239 
	C172.766800,250.819168 170.624802,248.086685 165.443207,247.943390 
	C160.652145,247.810913 157.321472,250.987183 157.095810,255.903824 
	C156.858551,261.073761 159.810593,264.547516 165.077087,264.738129 
	C167.796112,264.836548 171.317703,265.483459 172.194077,260.931091 
	C168.401718,260.395447 164.227554,263.404358 162.254822,258.105133 
	C163.360245,257.980957 164.175323,257.889404 165.845413,257.788239 
M228.146973,264.798767 
	C230.278122,263.999695 233.957062,264.392120 231.603317,260.961853 
	C228.231354,260.376648 224.016022,260.110199 222.685059,258.013153 
	C221.296112,255.824722 221.670349,251.199081 223.189331,248.910126 
	C224.355042,247.153488 228.495575,247.370987 231.313110,246.710526 
	C233.793091,245.145737 232.888611,243.838028 229.802902,243.165985 
	C222.949570,241.673416 217.745453,245.017380 216.673660,251.724335 
	C215.379715,259.821350 218.946198,264.202515 228.146973,264.798767 
M102.542580,244.819809 
	C101.644577,245.988785 100.427986,247.031555 99.905846,248.349442 
	C98.026344,253.093292 97.672699,258.408722 101.484039,261.802216 
	C103.864662,263.921875 108.360046,263.899078 111.964256,264.259003 
	C112.946175,264.357056 114.137405,262.359100 114.909050,261.629150 
	C110.815483,260.292206 106.667084,260.109894 104.805222,257.953430 
	C103.350235,256.268188 103.645538,251.293030 105.164970,249.326309 
	C106.639496,247.417740 110.665245,247.480179 113.570602,246.677032 
	C115.855927,245.337189 115.291016,243.455429 112.343452,243.332169 
	C109.312607,243.205444 106.243248,243.999924 102.542580,244.819809 
M407.121582,260.256256 
	C406.992798,263.400696 407.051300,266.330109 411.982269,263.993927 
	C411.982269,261.665253 411.558685,259.085510 412.122742,256.743683 
	C412.538086,255.019150 414.244354,253.605560 415.375427,252.053421 
	C416.261627,253.572784 417.643860,255.007843 417.919678,256.630951 
	C418.351105,259.169830 418.033997,261.835968 418.033997,264.551880 
	C419.910889,264.551880 421.153839,264.551880 422.843201,264.551880 
	C422.843201,260.669678 423.035095,257.027832 422.787933,253.416016 
	C422.552643,249.977692 420.603729,247.815399 416.933472,247.977081 
	C413.834290,248.113602 410.747742,248.536804 407.085114,248.887802 
	C407.085114,252.057770 407.085114,255.691193 407.121582,260.256256 
M248.183624,263.907867 
	C253.579193,259.490570 253.686508,251.823318 248.332565,249.033066 
	C244.740189,247.160873 241.049667,247.380264 238.200989,250.211395 
	C235.158295,253.235367 235.080139,257.270660 237.086716,260.827271 
	C239.352676,264.843658 243.163864,265.613159 248.183624,263.907867 
M124.913162,264.688141 
	C131.573914,264.477264 134.124649,262.479492 134.543869,257.145233 
	C134.904526,252.555786 132.515686,249.040848 128.426361,248.143982 
	C123.863136,247.143158 119.703522,249.353455 118.469345,253.434769 
	C117.014977,258.244232 119.088196,262.254852 124.913162,264.688141 
M312.875824,260.287354 
	C313.332672,260.973969 313.684692,261.768860 314.263702,262.329224 
	C317.543549,265.503723 322.733978,265.618622 325.976746,262.651062 
	C328.702606,260.156464 329.230499,254.336777 327.020020,251.150421 
	C324.840332,248.008484 319.316803,246.872040 315.799774,249.052109 
	C311.753143,251.560516 311.489197,255.393814 312.875824,260.287354 
M390.250641,263.352875 
	C391.006287,263.675842 391.737152,264.087341 392.521729,264.306946 
	C396.630524,265.457001 400.344574,264.728882 402.217255,260.676086 
	C403.861511,257.117645 404.034515,253.197800 400.898438,250.078659 
	C398.177887,247.372803 392.798492,247.106247 389.876373,249.596298 
	C386.553558,252.427841 386.276123,256.122864 387.757080,259.995117 
	C388.153992,261.033051 389.021515,261.890991 390.250641,263.352875 
M197.600479,264.794647 
	C200.805923,264.629547 204.247849,264.646027 204.992874,260.504547 
	C205.694427,256.604675 202.756546,255.344009 199.839111,254.301422 
	C198.784729,253.924606 197.636536,253.810394 196.531143,253.576355 
	C197.130203,252.984329 197.729248,252.392303 198.328308,251.800278 
	C203.477310,251.710159 203.477310,251.710159 204.234802,248.813583 
	C202.599182,248.525589 200.799545,247.648666 199.421829,248.089706 
	C197.001099,248.864670 193.821503,249.904160 192.803146,251.815186 
	C191.224106,254.778381 194.214828,256.346039 196.736679,257.553223 
	C198.032440,258.173492 199.167908,259.128693 200.375809,259.932526 
	C200.199280,260.354553 200.022736,260.776581 199.846207,261.198608 
	C197.479095,261.052643 195.111984,260.906677 192.744858,260.760712 
	C192.500702,261.234772 192.256531,261.708832 192.012375,262.182892 
	C193.607147,263.054718 195.201920,263.926544 197.600479,264.794647 
M365.377350,259.050964 
	C365.385925,262.636566 367.173645,264.815979 370.751221,264.697815 
	C372.311310,264.646301 373.830200,263.348083 375.019409,262.781921 
	C372.797760,260.452820 370.577057,259.183838 370.254761,257.542175 
	C369.753052,254.986816 368.717834,251.131866 373.764679,251.086182 
	C373.852692,251.085388 374.367371,248.587006 373.923492,248.247757 
	C372.210480,246.938477 370.188690,246.033157 367.778198,244.698318 
	C366.634521,246.069366 365.008270,248.018967 364.032959,249.188187 
	C364.543152,252.680908 364.946289,255.440659 365.377350,259.050964 
M337.053619,258.715210 
	C336.778107,255.603195 337.357239,253.265472 341.044891,252.396301 
	C342.157410,252.134079 342.834747,250.025681 343.673828,248.817108 
	C339.279510,248.817108 335.905853,248.817108 332.198639,248.817108 
	C332.198639,252.826797 332.300171,257.125702 332.169006,261.417480 
	C332.046448,265.428314 334.069916,265.241089 337.044250,264.208374 
	C337.044250,262.559814 337.044250,261.078003 337.053619,258.715210 
M256.822845,264.460144 
	C258.928345,264.965881 260.887634,265.323242 260.867584,262.090454 
	C260.826538,255.473526 260.855255,248.856140 260.855255,242.385696 
	C257.451813,241.226166 256.009552,241.915466 256.118805,245.315735 
	C256.316254,251.461456 256.260651,257.615295 256.822845,264.460144 
M265.123810,255.450241 
	C265.123108,257.441620 265.208771,259.437592 265.102600,261.423340 
	C264.916962,264.895508 266.620300,265.315338 269.802521,264.196014 
	C269.802521,257.628662 269.956696,251.017090 269.645142,244.427536 
	C269.595367,243.374954 267.457916,242.421097 266.285614,241.421600 
	C265.898224,241.810654 265.510803,242.199722 265.123413,242.588791 
	C265.123413,246.550125 265.123413,250.511475 265.123810,255.450241 
M378.866150,248.282318 
	C378.658691,252.687103 378.476166,257.093231 378.236359,261.496277 
	C378.018921,265.488861 380.134613,265.215179 383.039215,264.261749 
	C383.039215,259.607941 382.919678,255.162704 383.083832,250.727982 
	C383.183167,248.045364 381.799042,247.720001 378.866150,248.282318 
M188.433838,248.224258 
	C186.393646,247.864578 184.373810,247.436661 184.414169,250.645309 
	C184.471695,255.219101 184.428802,259.794128 184.428802,264.245514 
	C187.784058,265.378052 189.230347,264.671356 189.072021,261.322632 
	C188.877930,257.217957 188.961502,253.100143 188.433838,248.224258 
z"/>
<path fill="#188F57" opacity="1.000000" stroke="none" 
	d="
M301.101868,168.061783 
	C301.101868,168.061783 300.729156,167.804596 300.366516,167.593811 
	C299.714081,167.181671 299.400665,167.133286 299.063568,167.237900 
	C298.467865,166.891373 297.872131,166.544846 297.284515,165.783813 
	C302.467133,163.571869 306.861420,160.802826 309.698547,155.594360 
	C314.090546,151.397766 318.146820,147.283371 322.477936,142.984192 
	C326.344849,138.959641 329.936859,135.119873 333.851074,131.212692 
	C337.174255,128.149231 340.175262,125.153221 343.176270,122.157196 
	C344.427673,121.079224 345.679077,120.001259 347.322815,118.567535 
	C348.022736,117.815369 348.330322,117.418961 348.637878,117.022552 
	C348.637878,117.022552 349.038391,116.763016 349.426849,116.441391 
	C350.810425,115.070244 351.805542,114.020714 352.800659,112.971184 
	C353.004700,112.926094 353.208710,112.881012 354.011200,112.861214 
	C355.034882,112.959854 355.460052,113.033211 355.885223,113.106575 
	C355.885223,113.106575 355.998779,113.001221 355.958679,113.515381 
	C355.681091,121.769279 357.689026,129.781586 353.130768,136.996857 
	C352.844666,137.237183 352.558594,137.477493 351.850708,138.088654 
	C349.790558,140.288391 348.152252,142.117279 346.213684,144.011749 
	C343.839844,146.260422 341.766235,148.443497 339.401123,150.734009 
	C338.265106,151.732849 337.420654,152.624268 336.313477,153.649933 
	C335.609039,154.424911 335.167297,155.065643 334.417114,155.821671 
	C332.468048,157.631821 330.827454,159.326660 329.186829,161.021500 
	C329.186829,161.021500 329.028961,160.995468 328.706116,161.162262 
	C325.876465,163.333359 323.369690,165.337677 320.862915,167.341995 
	C320.128967,167.524506 319.395050,167.707001 317.846130,167.954071 
	C311.721405,168.033020 306.411652,168.047409 301.101868,168.061783 
z"/>
<path fill="#4A86EC" opacity="1.000000" stroke="none" 
	d="
M188.975388,130.903534 
	C197.664124,119.122604 208.753128,115.730705 223.916031,120.764763 
	C220.320648,124.584702 216.601044,127.893784 212.566208,131.260773 
	C208.328812,135.549911 204.406616,139.781113 200.186035,144.110901 
	C196.141800,148.061432 192.395966,151.913391 188.650116,155.765350 
	C183.076767,160.953995 177.515656,166.155914 171.920853,171.321335 
	C170.634216,172.509216 169.231827,173.571732 167.823013,174.741486 
	C163.261276,167.383713 165.932129,152.824524 173.038422,146.576202 
	C173.964584,145.959976 174.429718,145.382797 174.894867,144.805603 
	C174.894867,144.805603 174.892578,144.904556 175.196854,144.888565 
	C176.675568,143.599426 177.849991,142.326263 179.011780,141.027710 
	C178.999130,141.002319 179.051315,141.024475 179.394547,141.002319 
	C181.376816,139.609192 183.161911,138.373901 184.604828,136.820724 
	C185.608353,135.740479 186.141769,134.223526 186.939850,132.934723 
	C186.994461,132.967773 186.886597,132.910950 187.230011,132.918549 
	C188.040756,132.251953 188.508072,131.577744 188.975388,130.903534 
z"/>
<path fill="#4A85EB" opacity="1.000000" stroke="none" 
	d="
M296.971954,120.464561 
	C296.971954,120.464561 297.286133,120.508171 297.398804,120.541176 
	C297.511475,120.574181 297.741516,120.745674 297.764587,121.058243 
	C301.679779,124.656570 305.571869,127.942337 309.232178,131.484421 
	C305.330536,135.814819 301.660706,139.888901 297.678772,144.095764 
	C293.566559,148.066147 289.766449,151.903732 285.966370,155.741318 
	C285.309875,156.227463 284.462433,156.582520 284.025330,157.219254 
	C276.732483,167.842697 266.074036,169.310913 254.488373,167.982117 
	C252.271423,167.727844 250.157257,166.577744 248.140060,165.522110 
	C254.092682,163.993378 257.935822,160.218689 261.352997,155.324173 
	C265.521973,151.126083 269.354218,147.052338 273.498596,142.889587 
	C277.596710,138.917633 281.382629,135.034653 285.498932,131.088669 
	C288.891388,128.041046 291.953491,125.056442 295.355194,121.957390 
	C295.913177,121.438812 296.131531,121.034691 296.459595,120.666809 
	C296.569336,120.703056 296.971954,120.464561 296.971954,120.464561 
z"/>
<path fill="#188E57" opacity="1.000000" stroke="none" 
	d="
M236.643433,155.624557 
	C234.889099,157.397156 233.160477,159.196121 231.375961,160.937805 
	C223.404480,168.717926 209.405579,170.881546 199.386322,165.551727 
	C205.339203,164.124054 208.873459,160.026611 212.497360,155.557922 
	C216.792145,151.299133 220.804840,147.154755 225.128479,142.867676 
	C229.380585,138.796051 233.321777,134.867157 237.262970,130.938248 
	C239.927170,128.288040 242.591370,125.637833 245.967865,122.879044 
	C253.858688,123.367485 258.432922,127.005318 259.046814,133.073074 
	C255.481064,136.989105 252.121674,140.601669 248.478485,144.347961 
	C244.344269,148.195984 240.493851,151.910263 236.643433,155.624557 
z"/>
<path fill="#D64A3F" opacity="1.000000" stroke="none" 
	d="
M285.168579,131.151688 
	C281.382629,135.034653 277.596710,138.917633 273.292114,142.618622 
	C269.158508,138.786835 265.543549,135.137024 261.933838,131.155914 
	C259.759003,128.302612 257.531464,125.819405 255.420563,123.240753 
	C254.484482,122.097290 253.784164,120.760826 253.421844,119.438217 
	C254.453308,119.470367 255.039780,119.576279 255.801605,119.769806 
	C256.774323,119.784401 257.571655,119.711388 258.369019,119.638374 
	C258.641510,119.543472 258.914032,119.448563 259.840240,119.354095 
	C260.671295,119.409805 260.848663,119.465088 261.158264,119.834404 
	C264.151917,120.003510 267.013275,119.858574 270.265106,119.717041 
	C277.391418,121.120941 280.658447,126.925430 285.168579,131.151688 
z"/>
<path fill="#D2483E" opacity="1.000000" stroke="none" 
	d="
M175.082092,142.406845 
	C163.765991,134.987457 165.724136,123.787857 167.019165,112.326637 
	C174.518997,117.388855 180.657120,123.886246 186.937057,130.910477 
	C186.954727,131.998276 186.920654,132.454605 186.886597,132.910950 
	C186.886597,132.910950 186.994461,132.967773 186.606110,132.974564 
	C183.828964,135.662399 181.440140,138.343445 179.051315,141.024475 
	C179.051315,141.024475 178.999130,141.002319 178.660797,141.048035 
	C177.242325,141.531448 176.162216,141.969147 175.082092,142.406845 
z"/>
<path fill="#E5B318" opacity="1.000000" stroke="none" 
	d="
M236.980499,130.781723 
	C233.321777,134.867157 229.380585,138.796051 224.857666,142.690857 
	C220.477768,138.838791 216.679596,135.020828 212.881424,131.202850 
	C216.601044,127.893784 220.320648,124.584702 224.266327,120.951485 
	C228.560959,123.959961 232.629501,127.292580 236.980499,130.781723 
z"/>
<path fill="#CE4B40" opacity="1.000000" stroke="none" 
	d="
M286.238647,155.960770 
	C289.766449,151.903732 293.566559,148.066147 297.920746,144.326447 
	C302.104156,148.175079 305.733459,151.925827 309.362793,155.676559 
	C306.861420,160.802826 302.467133,163.571869 297.001038,165.587341 
	C293.309937,162.597015 289.910431,159.388626 286.238647,155.960770 
z"/>
<path fill="#E5B318" opacity="1.000000" stroke="none" 
	d="
M236.877808,155.893097 
	C240.493851,151.910263 244.344269,148.195984 248.796417,144.458618 
	C253.270874,148.106522 257.143555,151.777512 261.016266,155.448502 
	C257.935822,160.218689 254.092682,163.993378 247.858749,165.258698 
	C243.992767,162.263290 240.552475,159.212463 236.877808,155.893097 
z"/>
<path fill="#CC493D" opacity="1.000000" stroke="none" 
	d="
M212.215286,155.672333 
	C208.873459,160.026611 205.339203,164.124054 199.144867,165.277023 
	C195.546143,162.363647 192.328201,159.352325 188.880203,156.053192 
	C192.395966,151.913391 196.141800,148.061432 200.441299,144.363953 
	C204.735077,148.236389 208.475189,151.954361 212.215286,155.672333 
z"/>
<path fill="#848484" opacity="1.000000" stroke="none" 
	d="
M293.191986,243.647034 
	C294.520721,242.537704 295.848663,241.853653 297.761993,240.868042 
	C297.939972,244.206345 298.053192,246.329758 298.166748,248.459167 
	C306.505798,247.434647 309.890320,250.538849 308.930145,258.225800 
	C308.299683,263.272736 305.251190,265.288849 300.234528,264.364044 
	C298.147247,263.979218 295.929840,264.300140 293.191193,264.300140 
	C293.191193,257.621643 293.191193,250.846970 293.191986,243.647034 
M298.054596,254.742950 
	C298.022583,257.688110 297.457733,261.235840 302.157227,260.405823 
	C303.036133,260.250580 304.007263,257.778198 304.020782,256.366333 
	C304.034149,254.971634 303.221436,252.963501 302.140076,252.365433 
	C301.349731,251.928329 299.536926,253.339981 298.054596,254.742950 
z"/>
<path fill="#818181" opacity="1.000000" stroke="none" 
	d="
M139.131500,250.126099 
	C142.066422,249.099564 144.740692,248.364044 147.414963,247.628510 
	C149.916931,246.925949 145.703415,240.177902 152.894989,242.044083 
	C152.894989,249.619888 152.894989,257.013275 152.894989,264.026093 
	C149.562012,264.294861 146.559296,264.780701 143.568298,264.716980 
	C139.770676,264.636047 137.779602,262.055420 137.656891,258.571808 
	C137.561722,255.871170 138.430527,253.136597 139.131500,250.126099 
M143.903381,260.579346 
	C147.928101,261.600616 149.246582,259.170746 148.724731,255.999176 
	C148.479385,254.507996 146.147476,252.105240 145.028030,252.245529 
	C141.522369,252.684875 141.806030,255.701187 142.347031,258.388397 
	C142.470581,259.002075 142.957062,259.542694 143.903381,260.579346 
z"/>
<path fill="#818181" opacity="1.000000" stroke="none" 
	d="
M352.982788,247.955353 
	C358.501526,247.887848 360.551392,250.601974 360.395874,255.470764 
	C360.301331,258.430420 360.378448,261.395569 360.378448,264.010742 
	C356.988739,264.299255 354.072998,264.640045 351.147858,264.770569 
	C348.170410,264.903381 345.864594,263.788910 345.396179,260.537811 
	C344.938965,257.364868 346.477905,255.506409 349.613373,254.945740 
	C351.385437,254.628876 353.157257,254.310333 354.929169,253.992554 
	C355.032623,253.488541 355.136047,252.984528 355.239471,252.480515 
	C352.547028,251.944305 349.854584,251.408096 347.162170,250.871887 
	C347.159180,250.353577 347.156219,249.835281 347.153259,249.316986 
	C348.956116,248.861908 350.759003,248.406815 352.982788,247.955353 
z"/>
<path fill="#848484" opacity="1.000000" stroke="none" 
	d="
M276.979279,252.219467 
	C276.458588,251.434952 275.937927,250.650436 275.408356,249.852509 
	C283.739624,245.401443 288.808777,248.270767 288.811920,257.173401 
	C288.812775,259.596771 288.812073,262.020142 288.812073,264.068634 
	C285.198517,264.347351 282.231140,264.959412 279.358734,264.660126 
	C277.510315,264.467468 274.420227,263.060913 274.321777,261.977234 
	C274.125397,259.815613 275.605591,257.501678 277.117615,255.098083 
	C279.881744,254.727402 281.921570,254.509338 284.405396,254.243805 
	C282.318695,249.394485 279.427551,251.911163 276.979279,252.219467 
z"/>
<path fill="#878787" opacity="1.000000" stroke="none" 
	d="
M165.417908,257.793030 
	C164.175323,257.889404 163.360245,257.980957 162.254822,258.105133 
	C164.227554,263.404358 168.401718,260.395447 172.194077,260.931091 
	C171.317703,265.483459 167.796112,264.836548 165.077087,264.738129 
	C159.810593,264.547516 156.858551,261.073761 157.095810,255.903824 
	C157.321472,250.987183 160.652145,247.810913 165.443207,247.943390 
	C170.624802,248.086685 172.766800,250.819168 172.515533,257.788239 
	C170.320435,257.788239 168.082932,257.788239 165.417908,257.793030 
z"/>
<path fill="#818181" opacity="1.000000" stroke="none" 
	d="
M227.742310,264.811523 
	C218.946198,264.202515 215.379715,259.821350 216.673660,251.724335 
	C217.745453,245.017380 222.949570,241.673416 229.802902,243.165985 
	C232.888611,243.838028 233.793091,245.145737 231.313110,246.710526 
	C228.495575,247.370987 224.355042,247.153488 223.189331,248.910126 
	C221.670349,251.199081 221.296112,255.824722 222.685059,258.013153 
	C224.016022,260.110199 228.231354,260.376648 231.603317,260.961853 
	C233.957062,264.392120 230.278122,263.999695 227.742310,264.811523 
z"/>
<path fill="#848484" opacity="1.000000" stroke="none" 
	d="
M102.866661,244.605560 
	C106.243248,243.999924 109.312607,243.205444 112.343452,243.332169 
	C115.291016,243.455429 115.855927,245.337189 113.570602,246.677032 
	C110.665245,247.480179 106.639496,247.417740 105.164970,249.326309 
	C103.645538,251.293030 103.350235,256.268188 104.805222,257.953430 
	C106.667084,260.109894 110.815483,260.292206 114.909050,261.629150 
	C114.137405,262.359100 112.946175,264.357056 111.964256,264.259003 
	C108.360046,263.899078 103.864662,263.921875 101.484039,261.802216 
	C97.672699,258.408722 98.026344,253.093292 99.905846,248.349442 
	C100.427986,247.031555 101.644577,245.988785 102.866661,244.605560 
z"/>
<path fill="#878787" opacity="1.000000" stroke="none" 
	d="
M407.103333,259.790436 
	C407.085114,255.691193 407.085114,252.057770 407.085114,248.887802 
	C410.747742,248.536804 413.834290,248.113602 416.933472,247.977081 
	C420.603729,247.815399 422.552643,249.977692 422.787933,253.416016 
	C423.035095,257.027832 422.843201,260.669678 422.843201,264.551880 
	C421.153839,264.551880 419.910889,264.551880 418.033997,264.551880 
	C418.033997,261.835968 418.351105,259.169830 417.919678,256.630951 
	C417.643860,255.007843 416.261627,253.572784 415.375427,252.053421 
	C414.244354,253.605560 412.538086,255.019150 412.122742,256.743683 
	C411.558685,259.085510 411.982269,261.665253 411.982269,263.993927 
	C407.051300,266.330109 406.992798,263.400696 407.103333,259.790436 
z"/>
<path fill="#818181" opacity="1.000000" stroke="none" 
	d="
M247.813980,264.008331 
	C243.163864,265.613159 239.352676,264.843658 237.086716,260.827271 
	C235.080139,257.270660 235.158295,253.235367 238.200989,250.211395 
	C241.049667,247.380264 244.740189,247.160873 248.332565,249.033066 
	C253.686508,251.823318 253.579193,259.490570 247.813980,264.008331 
M244.279877,252.024185 
	C239.451340,252.472702 240.671371,256.047577 241.293884,258.686890 
	C241.506165,259.586914 244.025040,259.942932 245.489990,260.547516 
	C245.984375,258.220764 246.579880,255.906754 246.876602,253.555054 
	C246.927872,253.148712 245.711929,252.582489 244.279877,252.024185 
z"/>
<path fill="#818181" opacity="1.000000" stroke="none" 
	d="
M124.541374,264.574951 
	C119.088196,262.254852 117.014977,258.244232 118.469345,253.434769 
	C119.703522,249.353455 123.863136,247.143158 128.426361,248.143982 
	C132.515686,249.040848 134.904526,252.555786 134.543869,257.145233 
	C134.124649,262.479492 131.573914,264.477264 124.541374,264.574951 
M129.861542,255.624741 
	C128.433228,254.421524 127.004898,253.218307 125.576576,252.015106 
	C124.684853,253.248550 122.944855,254.596817 123.092751,255.689560 
	C123.337494,257.497803 124.798820,259.141449 125.747536,260.854431 
	C127.130531,259.377197 128.513535,257.899994 129.861542,255.624741 
z"/>
<path fill="#818181" opacity="1.000000" stroke="none" 
	d="
M312.718384,259.924866 
	C311.489197,255.393814 311.753143,251.560516 315.799774,249.052109 
	C319.316803,246.872040 324.840332,248.008484 327.020020,251.150421 
	C329.230499,254.336777 328.702606,260.156464 325.976746,262.651062 
	C322.733978,265.618622 317.543549,265.503723 314.263702,262.329224 
	C313.684692,261.768860 313.332672,260.973969 312.718384,259.924866 
M316.917084,255.621063 
	C317.965149,257.377563 319.013214,259.134064 320.061249,260.890594 
	C321.290100,259.776733 323.360413,258.781799 323.538818,257.519470 
	C323.771851,255.870712 322.507446,254.010300 321.887299,252.240952 
	C320.252258,253.089142 318.617249,253.937347 316.917084,255.621063 
z"/>
<path fill="#818181" opacity="1.000000" stroke="none" 
	d="
M389.961823,263.092224 
	C389.021515,261.890991 388.153992,261.033051 387.757080,259.995117 
	C386.276123,256.122864 386.553558,252.427841 389.876373,249.596298 
	C392.798492,247.106247 398.177887,247.372803 400.898438,250.078659 
	C404.034515,253.197800 403.861511,257.117645 402.217255,260.676086 
	C400.344574,264.728882 396.630524,265.457001 392.521729,264.306946 
	C391.737152,264.087341 391.006287,263.675842 389.961823,263.092224 
M393.081299,260.178528 
	C396.477478,261.903229 398.470123,260.185303 398.483154,257.073944 
	C398.490143,255.388397 396.656738,252.495773 395.263855,252.235825 
	C391.560272,251.544571 391.847076,254.792175 391.870850,257.266144 
	C391.878479,258.061279 392.257416,258.852844 393.081299,260.178528 
z"/>
<path fill="#818181" opacity="1.000000" stroke="none" 
	d="
M197.198593,264.796509 
	C195.201920,263.926544 193.607147,263.054718 192.012375,262.182892 
	C192.256531,261.708832 192.500702,261.234772 192.744858,260.760712 
	C195.111984,260.906677 197.479095,261.052643 199.846207,261.198608 
	C200.022736,260.776581 200.199280,260.354553 200.375809,259.932526 
	C199.167908,259.128693 198.032440,258.173492 196.736679,257.553223 
	C194.214828,256.346039 191.224106,254.778381 192.803146,251.815186 
	C193.821503,249.904160 197.001099,248.864670 199.421829,248.089706 
	C200.799545,247.648666 202.599182,248.525589 204.234802,248.813583 
	C203.477310,251.710159 203.477310,251.710159 198.328308,251.800278 
	C197.729248,252.392303 197.130203,252.984329 196.531143,253.576355 
	C197.636536,253.810394 198.784729,253.924606 199.839111,254.301422 
	C202.756546,255.344009 205.694427,256.604675 204.992874,260.504547 
	C204.247849,264.646027 200.805923,264.629547 197.198593,264.796509 
z"/>
<path fill="#818181" opacity="1.000000" stroke="none" 
	d="
M365.363373,258.625671 
	C364.946289,255.440659 364.543152,252.680908 364.032959,249.188187 
	C365.008270,248.018967 366.634521,246.069366 367.778198,244.698318 
	C370.188690,246.033157 372.210480,246.938477 373.923492,248.247757 
	C374.367371,248.587006 373.852692,251.085388 373.764679,251.086182 
	C368.717834,251.131866 369.753052,254.986816 370.254761,257.542175 
	C370.577057,259.183838 372.797760,260.452820 375.019409,262.781921 
	C373.830200,263.348083 372.311310,264.646301 370.751221,264.697815 
	C367.173645,264.815979 365.385925,262.636566 365.363373,258.625671 
z"/>
<path fill="#F9F6D7" opacity="1.000000" stroke="none" 
	d="
M346.513947,143.946167 
	C348.152252,142.117279 349.790558,140.288391 351.729462,138.343719 
	C351.944214,139.218704 352.202637,140.446457 351.712280,141.158722 
	C349.722107,144.049622 350.758331,146.356750 353.256012,147.809570 
	C355.241058,148.964203 358.037964,150.776611 359.700012,146.657791 
	C358.977570,152.850571 358.255127,159.043365 357.446045,165.978775 
	C360.378693,165.134583 362.201721,164.609802 364.024750,164.085037 
	C364.385620,164.441879 364.746521,164.798737 365.107422,165.155579 
	C362.347290,168.077805 359.587158,171.000015 356.406525,173.954391 
	C355.986023,173.986542 355.815308,173.822815 355.871643,173.371658 
	C355.972473,168.775803 356.369415,164.594437 355.943237,160.498703 
	C355.635620,157.542343 354.233215,154.699921 353.242065,151.818527 
	C353.165100,151.830383 353.295685,151.745453 353.259277,151.451202 
	C352.825500,150.758392 352.428101,150.359818 352.016052,149.981293 
	C352.001373,150.001328 352.039856,149.968948 351.941956,149.690002 
	C351.250458,148.941376 350.656921,148.471710 349.805542,147.815033 
	C348.735229,146.750595 347.922668,145.873184 346.997375,144.712769 
	C346.761047,144.268570 346.637512,144.107376 346.513947,143.946167 
z"/>
<path fill="#F6F7F3" opacity="1.000000" stroke="none" 
	d="
M285.498932,131.088669 
	C280.658447,126.925430 277.391418,121.120941 270.276062,119.581512 
	C269.896545,119.442596 269.881226,119.167892 269.881226,119.167892 
	C273.223450,118.248810 276.565643,117.329720 280.482788,116.252541 
	C280.482788,118.753960 280.482788,120.107140 280.482788,121.764954 
	C281.939362,121.671692 283.178955,121.592316 284.559509,121.503922 
	C284.926086,123.701019 285.276459,125.800980 285.626831,127.900948 
	C286.126923,127.909622 286.627014,127.918297 287.127075,127.926971 
	C287.617645,125.060349 288.258331,122.209419 288.560150,119.323059 
	C288.923340,115.850105 290.157532,116.429016 292.014099,119.050171 
	C293.087463,120.498665 294.051544,121.285263 295.015564,122.071854 
	C291.953491,125.056442 288.891388,128.041046 285.498932,131.088669 
z"/>
<path fill="#878787" opacity="1.000000" stroke="none" 
	d="
M337.048950,259.155701 
	C337.044250,261.078003 337.044250,262.559814 337.044250,264.208374 
	C334.069916,265.241089 332.046448,265.428314 332.169006,261.417480 
	C332.300171,257.125702 332.198639,252.826797 332.198639,248.817108 
	C335.905853,248.817108 339.279510,248.817108 343.673828,248.817108 
	C342.834747,250.025681 342.157410,252.134079 341.044891,252.396301 
	C337.357239,253.265472 336.778107,255.603195 337.048950,259.155701 
z"/>
<path fill="#7A7A7A" opacity="1.000000" stroke="none" 
	d="
M256.566772,264.112946 
	C256.260651,257.615295 256.316254,251.461456 256.118805,245.315735 
	C256.009552,241.915466 257.451813,241.226166 260.855255,242.385696 
	C260.855255,248.856140 260.826538,255.473526 260.867584,262.090454 
	C260.887634,265.323242 258.928345,264.965881 256.566772,264.112946 
z"/>
<path fill="#7A7A7A" opacity="1.000000" stroke="none" 
	d="
M265.123596,254.961517 
	C265.123413,250.511475 265.123413,246.550125 265.123413,242.588791 
	C265.510803,242.199722 265.898224,241.810654 266.285614,241.421600 
	C267.457916,242.421097 269.595367,243.374954 269.645142,244.427536 
	C269.956696,251.017090 269.802521,257.628662 269.802521,264.196014 
	C266.620300,265.315338 264.916962,264.895508 265.102600,261.423340 
	C265.208771,259.437592 265.123108,257.441620 265.123596,254.961517 
z"/>
<path fill="#F9F6D7" opacity="1.000000" stroke="none" 
	d="
M297.512634,120.430725 
	C298.308502,117.851822 299.103180,115.416382 300.222595,111.985786 
	C302.540344,114.627983 303.811188,116.076691 304.668579,117.054100 
	C310.866058,117.054100 316.539124,117.054100 322.967712,117.054100 
	C323.433533,117.936325 324.257812,119.497437 325.082581,121.481163 
	C325.083069,121.903778 324.946564,122.055649 324.587799,121.917267 
	C315.532288,118.039284 306.623810,119.728477 297.741516,120.745674 
	C297.741516,120.745674 297.511475,120.574181 297.512634,120.430725 
z"/>
<path fill="#F9F6D7" opacity="1.000000" stroke="none" 
	d="
M356.071777,174.068024 
	C354.913300,178.363617 351.787079,177.298828 350.223785,175.288956 
	C347.314240,171.548248 344.449646,171.316620 339.999634,173.991913 
	C344.711273,168.243500 338.001770,165.344849 337.948456,160.491943 
	C337.966034,160.039825 338.112152,159.887527 338.359467,160.019592 
	C339.091431,160.408905 339.576080,160.666138 340.033691,160.961838 
	C340.006622,161.000320 340.078278,160.939148 340.166962,161.220413 
	C340.855804,161.965149 341.455994,162.428635 342.184540,163.121231 
	C342.739044,163.649155 343.165161,163.947937 343.681488,164.528870 
	C344.209076,165.166687 344.646454,165.522324 345.059509,165.925522 
	C345.035187,165.973083 345.124084,165.913803 345.210114,166.212845 
	C346.224030,167.305161 347.151917,168.098419 348.047180,168.936935 
	C348.014496,168.982193 348.108246,168.921585 348.198639,169.203583 
	C348.778442,169.800262 349.267822,170.114944 349.867920,170.666992 
	C350.360870,171.247818 350.743195,171.591309 351.240814,172.270782 
	C352.842529,173.012115 354.328918,173.417465 355.815308,173.822815 
	C355.815308,173.822815 355.986023,173.986542 356.071777,174.068024 
z"/>
<path fill="#878787" opacity="1.000000" stroke="none" 
	d="
M379.291443,248.139435 
	C381.799042,247.720001 383.183167,248.045364 383.083832,250.727982 
	C382.919678,255.162704 383.039215,259.607941 383.039215,264.261749 
	C380.134613,265.215179 378.018921,265.488861 378.236359,261.496277 
	C378.476166,257.093231 378.658691,252.687103 379.291443,248.139435 
z"/>
<path fill="#7A7A7A" opacity="1.000000" stroke="none" 
	d="
M188.679443,248.606140 
	C188.961502,253.100143 188.877930,257.217957 189.072021,261.322632 
	C189.230347,264.671356 187.784058,265.378052 184.428802,264.245514 
	C184.428802,259.794128 184.471695,255.219101 184.414169,250.645309 
	C184.373810,247.436661 186.393646,247.864578 188.679443,248.606140 
z"/>
<path fill="#F9F6D7" opacity="1.000000" stroke="none" 
	d="
M342.896851,122.036613 
	C340.175262,125.153221 337.174255,128.149231 333.649414,130.891998 
	C330.399292,127.777718 327.672913,124.916679 324.946564,122.055649 
	C324.946564,122.055649 325.083069,121.903778 325.148682,121.822876 
	C329.102936,122.259636 332.991547,122.777290 336.880127,123.294945 
	C336.845459,123.773010 336.810760,124.251076 336.776062,124.729141 
	C338.723206,123.791435 340.670349,122.853737 342.896851,122.036613 
z"/>
<path fill="#F9F6D7" opacity="1.000000" stroke="none" 
	d="
M353.500732,136.990448 
	C357.689026,129.781586 355.681091,121.769279 355.904358,113.570610 
	C356.890686,115.256241 358.658630,117.372444 358.739136,119.551018 
	C358.933411,124.805809 358.338745,130.089767 358.041840,135.750504 
	C356.966766,136.068436 355.418732,136.526230 353.500732,136.990448 
z"/>
<path fill="#956448" opacity="1.000000" stroke="none" 
	d="
M252.976837,119.511963 
	C253.784164,120.760826 254.484482,122.097290 255.420563,123.240753 
	C257.531464,125.819405 259.759003,128.302612 261.627380,131.195526 
	C260.628143,131.967468 259.940643,132.368546 259.253143,132.769623 
	C258.432922,127.005318 253.858688,123.367485 246.271271,122.712860 
	C246.200546,122.313904 246.538696,121.972549 247.326401,121.337502 
	C249.509583,120.533188 251.243225,120.022575 252.976837,119.511963 
z"/>
<path fill="#F6F7F3" opacity="1.000000" stroke="none" 
	d="
M253.421844,119.438210 
	C251.243225,120.022575 249.509583,120.533188 247.434784,121.111839 
	C245.062347,120.139648 243.031082,119.099411 240.235138,117.667580 
	C241.029099,117.145615 241.945740,116.044487 242.903595,116.007378 
	C245.707077,115.898788 248.558533,116.006859 251.330505,116.428780 
	C253.557007,116.767685 255.694992,117.688080 257.628876,118.833336 
	C256.799072,119.438210 256.212646,119.560196 255.626236,119.682190 
	C255.039780,119.576279 254.453308,119.470367 253.421844,119.438210 
z"/>
<path fill="#F9F6D7" opacity="1.000000" stroke="none" 
	d="
M321.013397,167.696991 
	C323.369690,165.337677 325.876465,163.333359 328.695190,161.241501 
	C327.693329,168.022522 326.624237,168.962753 321.013397,167.696991 
z"/>
<path fill="#F9F6D7" opacity="1.000000" stroke="none" 
	d="
M301.356140,168.331757 
	C306.411652,168.047409 311.721405,168.033020 317.489319,168.081451 
	C312.570618,170.756058 307.109558,170.359146 301.356140,168.331757 
z"/>
<path fill="#F6F7F3" opacity="1.000000" stroke="none" 
	d="
M276.981476,252.556152 
	C279.427551,251.911163 282.318695,249.394485 284.405396,254.243805 
	C281.921570,254.509338 279.881744,254.727402 277.416504,254.929596 
	C276.988617,254.240082 276.986145,253.566452 276.981476,252.556152 
z"/>
<path fill="#F9F6D7" opacity="1.000000" stroke="none" 
	d="
M329.548218,161.018677 
	C330.827454,159.326660 332.468048,157.631821 334.576630,156.103516 
	C335.580688,156.588943 336.116760,156.907837 336.673096,157.223877 
	C336.693298,157.221054 336.725800,157.242096 336.769379,157.542145 
	C337.246002,158.523987 337.679077,159.205765 338.112152,159.887527 
	C338.112152,159.887527 337.966034,160.039825 337.893951,160.119537 
	C335.184448,160.471451 332.546997,160.743652 329.548218,161.018677 
z"/>
<path fill="#956448" opacity="1.000000" stroke="none" 
	d="
M269.476898,119.221695 
	C269.881226,119.167892 269.896545,119.442596 269.885590,119.578117 
	C267.013275,119.858574 264.151917,120.003510 261.555176,119.785477 
	C262.877197,119.313713 263.934540,119.204926 264.991913,119.096130 
	C266.352142,119.155922 267.712341,119.215706 269.476898,119.221695 
z"/>
<path fill="#637ABC" opacity="1.000000" stroke="none" 
	d="
M175.111862,142.717651 
	C176.162216,141.969147 177.242325,141.531448 178.673431,141.073425 
	C177.849991,142.326263 176.675568,143.599426 175.152557,144.866501 
	C174.916519,144.249771 175.029083,143.639114 175.111862,142.717651 
z"/>
<path fill="#F9F6D7" opacity="1.000000" stroke="none" 
	d="
M295.355225,121.957397 
	C294.051544,121.285263 293.087463,120.498665 292.078613,119.401443 
	C293.249420,119.392303 294.465088,119.693787 296.041382,120.252327 
	C296.402069,120.509377 296.349884,120.630577 296.349854,120.630569 
	C296.131531,121.034691 295.913177,121.438812 295.355225,121.957397 
z"/>
<path fill="#F6F7F3" opacity="1.000000" stroke="none" 
	d="
M264.842041,118.767807 
	C263.934540,119.204926 262.877197,119.313713 261.422913,119.471436 
	C260.848663,119.465088 260.671295,119.409805 260.251099,119.218048 
	C261.152039,115.821671 262.857117,116.656609 264.842041,118.767807 
z"/>
<path fill="#F9F6D7" opacity="1.000000" stroke="none" 
	d="
M352.412292,112.976410 
	C351.805542,114.020714 350.810425,115.070244 349.520599,116.221970 
	C350.158569,115.209984 351.091248,114.095810 352.412292,112.976410 
z"/>
<path fill="#637ABC" opacity="1.000000" stroke="none" 
	d="
M187.230011,132.918549 
	C186.920654,132.454605 186.954727,131.998276 187.086182,131.210876 
	C187.581879,130.908310 187.980179,130.936798 188.676941,130.934402 
	C188.508072,131.577744 188.040756,132.251953 187.230011,132.918549 
z"/>
<path fill="#956448" opacity="1.000000" stroke="none" 
	d="
M255.801605,119.769806 
	C256.212646,119.560196 256.799072,119.438210 257.675842,119.203842 
	C257.966187,119.091469 258.225311,119.325981 258.297180,119.482178 
	C257.571655,119.711388 256.774323,119.784401 255.801605,119.769806 
z"/>
<path fill="#F9F6D7" opacity="1.000000" stroke="none" 
	d="
M355.893280,112.818848 
	C355.460052,113.033211 355.034882,112.959854 354.309753,112.765907 
	C354.389160,112.244514 354.768463,111.843704 355.147797,111.442894 
	C355.398987,111.805634 355.650146,112.168373 355.893280,112.818848 
z"/>
<path fill="#637ABC" opacity="1.000000" stroke="none" 
	d="
M174.606354,144.887573 
	C174.429718,145.382797 173.964584,145.959976 173.313828,146.400757 
	C173.524765,145.832733 173.921310,145.401138 174.606354,144.887573 
z"/>
<path fill="#F9F6D7" opacity="1.000000" stroke="none" 
	d="
M348.359802,117.057877 
	C348.330322,117.418961 348.022736,117.815369 347.467773,118.292038 
	C347.507477,117.945938 347.794617,117.519569 348.359802,117.057877 
z"/>
<path fill="#F9F6D7" opacity="1.000000" stroke="none" 
	d="
M299.211029,167.428696 
	C299.400665,167.133286 299.714081,167.181671 300.140259,167.585052 
	C300.276642,167.787064 299.796112,167.820587 299.796112,167.820587 
	C299.796112,167.820587 299.358490,167.619492 299.211029,167.428696 
z"/>
<path fill="#ECB517" opacity="1.000000" stroke="none" 
	d="
M296.459595,120.666817 
	C296.349884,120.630577 296.402069,120.509377 296.373291,120.451096 
	C296.344482,120.392815 296.657227,120.431122 296.814575,120.447845 
	C296.971954,120.464561 296.569336,120.703056 296.459595,120.666817 
z"/>
<path fill="#ECB517" opacity="1.000000" stroke="none" 
	d="
M324.587799,121.917267 
	C327.672913,124.916679 330.399292,127.777718 333.327271,130.959442 
	C329.936859,135.119873 326.344849,138.959641 322.205139,142.756042 
	C317.592987,138.884491 313.528503,135.056290 309.463989,131.228104 
	C305.571869,127.942337 301.679779,124.656570 297.764587,121.058243 
	C306.623810,119.728477 315.532288,118.039284 324.587799,121.917267 
z"/>
<path fill="#F6F7F3" opacity="1.000000" stroke="none" 
	d="
M309.232178,131.484421 
	C313.528503,135.056290 317.592987,138.884491 321.930298,142.940826 
	C318.146820,147.283371 314.090546,151.397766 309.698547,155.594360 
	C305.733459,151.925827 302.104156,148.175079 298.232849,144.193665 
	C301.660706,139.888901 305.330536,135.814819 309.232178,131.484421 
z"/>
<path fill="#D6BA45" opacity="1.000000" stroke="none" 
	d="
M346.213684,144.011749 
	C346.637512,144.107376 346.761047,144.268570 346.819672,144.999985 
	C344.517944,147.394928 342.281128,149.219635 339.954590,150.941467 
	C339.864807,150.838577 339.692657,150.626572 339.692657,150.626572 
	C341.766235,148.443497 343.839844,146.260422 346.213684,144.011749 
z"/>
<path fill="#D6BA45" opacity="1.000000" stroke="none" 
	d="
M336.576172,153.515686 
	C337.420654,152.624268 338.265106,151.732849 339.401123,150.734009 
	C339.692657,150.626572 339.864807,150.838577 339.892212,151.268524 
	C338.961182,152.479767 338.002808,153.261063 336.927551,153.910522 
	C336.810669,153.778702 336.576172,153.515686 336.576172,153.515686 
z"/>
<path fill="#D6BA45" opacity="1.000000" stroke="none" 
	d="
M336.652863,157.226715 
	C336.116760,156.907837 335.580688,156.588943 334.885071,155.988220 
	C335.167297,155.065643 335.609039,154.424911 336.313477,153.649933 
	C336.576172,153.515686 336.810669,153.778702 336.905273,154.311035 
	C336.884186,155.637833 336.768524,156.432266 336.652863,157.226715 
z"/>
<path fill="#F6F7F3" opacity="1.000000" stroke="none" 
	d="
M212.497360,155.557922 
	C208.475189,151.954361 204.735077,148.236389 200.739700,144.265381 
	C204.406616,139.781113 208.328812,135.549911 212.566208,131.260773 
	C216.679596,135.020828 220.477768,138.838791 224.546753,142.833557 
	C220.804840,147.154755 216.792145,151.299133 212.497360,155.557922 
z"/>
<path fill="#637ABC" opacity="1.000000" stroke="none" 
	d="
M179.394547,141.002319 
	C181.440140,138.343445 183.828964,135.662399 186.551498,132.941498 
	C186.141769,134.223526 185.608353,135.740479 184.604828,136.820724 
	C183.161911,138.373901 181.376816,139.609192 179.394547,141.002319 
z"/>
<path fill="#F6F7F3" opacity="1.000000" stroke="none" 
	d="
M259.046814,133.073074 
	C259.940643,132.368546 260.628143,131.967468 261.622131,131.526794 
	C265.543549,135.137024 269.158508,138.786835 272.979980,142.707611 
	C269.354218,147.052338 265.521973,151.126083 261.352997,155.324173 
	C257.143555,151.777512 253.270874,148.106522 249.080231,144.324890 
	C252.121674,140.601669 255.481064,136.989105 259.046814,133.073074 
z"/>
<path fill="#F6F7F3" opacity="1.000000" stroke="none" 
	d="
M298.117249,254.335236 
	C299.536926,253.339981 301.349731,251.928329 302.140076,252.365433 
	C303.221436,252.963501 304.034149,254.971634 304.020782,256.366333 
	C304.007263,257.778198 303.036133,260.250580 302.157227,260.405823 
	C297.457733,261.235840 298.022583,257.688110 298.117249,254.335236 
z"/>
<path fill="#F6F7F3" opacity="1.000000" stroke="none" 
	d="
M143.589935,260.348145 
	C142.957062,259.542694 142.470581,259.002075 142.347031,258.388397 
	C141.806030,255.701187 141.522369,252.684875 145.028030,252.245529 
	C146.147476,252.105240 148.479385,254.507996 148.724731,255.999176 
	C149.246582,259.170746 147.928101,261.600616 143.589935,260.348145 
z"/>
<path fill="#F6F7F3" opacity="1.000000" stroke="none" 
	d="
M244.680603,252.057159 
	C245.711929,252.582489 246.927872,253.148712 246.876602,253.555054 
	C246.579880,255.906754 245.984375,258.220764 245.489990,260.547516 
	C244.025040,259.942932 241.506165,259.586914 241.293884,258.686890 
	C240.671371,256.047577 239.451340,252.472702 244.680603,252.057159 
z"/>
<path fill="#F6F7F3" opacity="1.000000" stroke="none" 
	d="
M129.879028,256.023773 
	C128.513535,257.899994 127.130531,259.377197 125.747543,260.854431 
	C124.798820,259.141449 123.337494,257.497803 123.092751,255.689560 
	C122.944855,254.596817 124.684853,253.248550 125.576576,252.015106 
	C127.004898,253.218307 128.433228,254.421524 129.879028,256.023773 
z"/>
<path fill="#F6F7F3" opacity="1.000000" stroke="none" 
	d="
M316.949646,255.203308 
	C318.617249,253.937347 320.252258,253.089142 321.887299,252.240952 
	C322.507446,254.010300 323.771851,255.870712 323.538818,257.519470 
	C323.360413,258.781799 321.290100,259.776733 320.061249,260.890594 
	C319.013214,259.134064 317.965149,257.377563 316.949646,255.203308 
z"/>
<path fill="#F6F7F3" opacity="1.000000" stroke="none" 
	d="
M392.773895,259.912292 
	C392.257416,258.852844 391.878479,258.061279 391.870850,257.266144 
	C391.847076,254.792175 391.560272,251.544571 395.263855,252.235825 
	C396.656738,252.495773 398.490143,255.388397 398.483154,257.073944 
	C398.470123,260.185303 396.477478,261.903229 392.773895,259.912292 
z"/>
<path fill="#F3B407" opacity="1.000000" stroke="none" 
	d="
M336.673096,157.223877 
	C336.768524,156.432266 336.884186,155.637833 337.022156,154.442871 
	C338.002808,153.261063 338.961182,152.479767 339.981964,151.371399 
	C342.281128,149.219635 344.517944,147.394928 346.932434,145.282990 
	C347.922668,145.873184 348.735229,146.750595 349.824982,148.139053 
	C350.748077,149.089722 351.393982,149.529343 352.039856,149.968948 
	C352.039856,149.968948 352.001373,150.001328 352.025024,150.292755 
	C352.464355,150.971268 352.880035,151.358353 353.295685,151.745453 
	C353.295685,151.745453 353.165100,151.830383 353.142944,152.223206 
	C353.729584,158.004807 354.546478,163.385391 354.759613,168.789795 
	C354.799042,169.788788 352.399384,170.884003 351.125488,171.934799 
	C350.743195,171.591309 350.360870,171.247818 349.836548,170.348206 
	C349.165741,169.501907 348.636993,169.211746 348.108246,168.921585 
	C348.108246,168.921585 348.014496,168.982193 348.032043,168.582062 
	C347.074402,167.425888 346.099243,166.669846 345.124084,165.913803 
	C345.124084,165.913803 345.035187,165.973083 345.011902,165.615265 
	C344.522827,164.920532 344.057068,164.583633 343.591278,164.246719 
	C343.165161,163.947937 342.739044,163.649155 342.143311,162.811401 
	C341.341888,161.828018 340.710083,161.383591 340.078278,160.939148 
	C340.078278,160.939148 340.006622,161.000320 340.023071,160.612915 
	C338.934937,159.231033 337.830353,158.236572 336.725800,157.242096 
	C336.725800,157.242096 336.693298,157.221054 336.673096,157.223877 
z"/>
<path fill="#D6BA45" opacity="1.000000" stroke="none" 
	d="
M351.240814,172.270782 
	C352.399384,170.884003 354.799042,169.788788 354.759613,168.789795 
	C354.546478,163.385391 353.729584,158.004807 353.219910,152.211334 
	C354.233215,154.699921 355.635620,157.542343 355.943237,160.498703 
	C356.369415,164.594437 355.972473,168.775803 355.871643,173.371658 
	C354.328918,173.417465 352.842529,173.012115 351.240814,172.270782 
z"/>
<path fill="#D6BA45" opacity="1.000000" stroke="none" 
	d="
M351.941956,149.690002 
	C351.393982,149.529343 350.748077,149.089722 350.082764,148.326080 
	C350.656921,148.471710 351.250458,148.941376 351.941956,149.690002 
z"/>
<path fill="#D6BA45" opacity="1.000000" stroke="none" 
	d="
M353.259277,151.451202 
	C352.880035,151.358353 352.464355,150.971268 352.039673,150.272705 
	C352.428101,150.359818 352.825500,150.758392 353.259277,151.451202 
z"/>
<path fill="#D6BA45" opacity="1.000000" stroke="none" 
	d="
M336.769379,157.542145 
	C337.830353,158.236572 338.934937,159.231033 340.050110,160.574432 
	C339.576080,160.666138 339.091431,160.408905 338.359467,160.019592 
	C337.679077,159.205765 337.246002,158.523987 336.769379,157.542145 
z"/>
<path fill="#D6BA45" opacity="1.000000" stroke="none" 
	d="
M345.210114,166.212845 
	C346.099243,166.669846 347.074402,167.425888 348.064697,168.536804 
	C347.151917,168.098419 346.224030,167.305161 345.210114,166.212845 
z"/>
<path fill="#D6BA45" opacity="1.000000" stroke="none" 
	d="
M340.166962,161.220413 
	C340.710083,161.383591 341.341888,161.828018 342.014923,162.582275 
	C341.455994,162.428635 340.855804,161.965149 340.166962,161.220413 
z"/>
<path fill="#D6BA45" opacity="1.000000" stroke="none" 
	d="
M348.198639,169.203583 
	C348.636993,169.211746 349.165741,169.501907 349.725861,170.110855 
	C349.267822,170.114944 348.778442,169.800262 348.198639,169.203583 
z"/>
<path fill="#D6BA45" opacity="1.000000" stroke="none" 
	d="
M343.681488,164.528870 
	C344.057068,164.583633 344.522827,164.920532 345.036224,165.567688 
	C344.646454,165.522324 344.209076,165.166687 343.681488,164.528870 
z"/>
</svg>